<?xml version="1.0" encoding="UTF-8" standalone="no"?>
<!-- Created with Inkscape (http://www.inkscape.org/) -->

<svg
   xmlns:dc="http://purl.org/dc/elements/1.1/"
   xmlns:cc="http://creativecommons.org/ns#"
   xmlns:rdf="http://www.w3.org/1999/02/22-rdf-syntax-ns#"
   xmlns:svg="http://www.w3.org/2000/svg"
   xmlns="http://www.w3.org/2000/svg"
   xmlns:sodipodi="http://sodipodi.sourceforge.net/DTD/sodipodi-0.dtd"
   xmlns:inkscape="http://www.inkscape.org/namespaces/inkscape"
   version="1.1"
   id="svg2"
   xml:space="preserve"
   width="1066.6667"
   height="1066.6667"
   viewBox="0 0 1066.6667 1066.6667"
   sodipodi:docname="SignUp Logo Bird.svg"
   inkscape:version="0.92.4 (5da689c313, 2019-01-14)"><metadata
     id="metadata8"><rdf:RDF><cc:Work
         rdf:about=""><dc:format>image/svg+xml</dc:format><dc:type
           rdf:resource="http://purl.org/dc/dcmitype/StillImage" /><dc:title></dc:title></cc:Work></rdf:RDF></metadata><defs
     id="defs6"><clipPath
       clipPathUnits="userSpaceOnUse"
       id="clipPath18"><path
         d="M 0,800 H 800 V 0 H 0 Z"
         id="path16"
         inkscape:connector-curvature="0" /></clipPath><clipPath
       clipPathUnits="userSpaceOnUse"
       id="clipPath26"><path
         d="M 0,797 H 799.998 V -3 H 0 Z"
         id="path24"
         inkscape:connector-curvature="0" /></clipPath><clipPath
       clipPathUnits="userSpaceOnUse"
       id="clipPath144"><path
         d="M 0,800 H 800 V 0 H 0 Z"
         id="path142"
         inkscape:connector-curvature="0" /></clipPath><clipPath
       clipPathUnits="userSpaceOnUse"
       id="clipPath152"><path
         d="M 57.1084,245.917 H 688.576 V 193.421 H 57.1084 Z"
         id="path150"
         inkscape:connector-curvature="0" /></clipPath><radialGradient
       fx="0"
       fy="0"
       cx="0"
       cy="0"
       r="1"
       gradientUnits="userSpaceOnUse"
       gradientTransform="matrix(312.47928,0,0,-17.429239,374.68213,218.98437)"
       spreadMethod="pad"
       id="radialGradient164"><stop
         style="stop-opacity:1;stop-color:#5e506e"
         offset="0"
         id="stop158" /><stop
         style="stop-opacity:1;stop-color:#5e506e"
         offset="0.1453868"
         id="stop160" /><stop
         style="stop-opacity:1;stop-color:#ffffff"
         offset="1"
         id="stop162" /></radialGradient></defs><sodipodi:namedview
     pagecolor="#ffffff"
     bordercolor="#666666"
     borderopacity="1"
     objecttolerance="10"
     gridtolerance="10"
     guidetolerance="10"
     inkscape:pageopacity="0"
     inkscape:pageshadow="2"
     inkscape:window-width="1920"
     inkscape:window-height="974"
     id="namedview4"
     showgrid="false"
     inkscape:zoom="0.62578945"
     inkscape:cx="934.57563"
     inkscape:cy="462.30395"
     inkscape:window-x="-11"
     inkscape:window-y="-11"
     inkscape:window-maximized="1"
     inkscape:current-layer="g10" /><g
     id="g10"
     inkscape:groupmode="layer"
     inkscape:label="15286-NQ1KRD"
     transform="matrix(1.3333333,0,0,-1.3333333,0,1066.6667)"><g
       id="g138"><g
         id="g140"
         clip-path="url(#clipPath144)"><g
           id="g146"><g
             id="g148" /><g
             id="g178"><g
               clip-path="url(#clipPath152)"
               id="g176"
               style="opacity:0.39999402"><g
                 id="g174"><g
                   id="g172"><g
                     id="g170"><g
                       id="g168"><path
                         d="m 688.576,219.669 c 0,-14.497 -141.36,-26.248 -315.736,-26.248 -174.373,0 -315.732,11.751 -315.732,26.248 0,14.497 141.359,26.248 315.732,26.248 174.376,0 315.736,-11.751 315.736,-26.248"
                         style="fill:url(#radialGradient164);stroke:none"
                         id="path166"
                         inkscape:connector-curvature="0" /></g></g></g></g></g></g></g></g></g><g
       id="g180"
       transform="translate(127,603)"><path
         d="M 0,0 H 95 L 81,-16 Z"
         style="fill:#ffe37f;fill-opacity:1;fill-rule:nonzero;stroke:none"
         id="path182"
         inkscape:connector-curvature="0" /></g><g
       id="g184"
       transform="translate(127,603)"><path
         d="M 0,0 81,-16 61,-32 Z"
         style="fill:#fed001;fill-opacity:1;fill-rule:nonzero;stroke:none"
         id="path186"
         inkscape:connector-curvature="0" /></g><g
       id="g188"
       transform="translate(127,603)"><path
         d="m 0,0 41,-36 20,4 z"
         style="fill:#ed9e00;fill-opacity:1;fill-rule:nonzero;stroke:none"
         id="path190"
         inkscape:connector-curvature="0" /></g><g
       id="g192"
       transform="translate(181,535)"><path
         d="M 0,0 -13,32 7,36 Z"
         style="fill:#ed9d00;fill-opacity:1;fill-rule:nonzero;stroke:none"
         id="path194"
         inkscape:connector-curvature="0" /></g><g
       id="g196"
       transform="translate(208,587)"><path
         d="M 0,0 14,16 53,3 Z"
         style="fill:#dddf00;fill-opacity:1;fill-rule:nonzero;stroke:none"
         id="path198"
         inkscape:connector-curvature="0" /></g><g
       id="g200"
       transform="translate(188,571)"><path
         d="m 0,0 23,-37 -30,1 z"
         style="fill:#3caa37;fill-opacity:1;fill-rule:nonzero;stroke:none"
         id="path202"
         inkscape:connector-curvature="0" /></g><g
       id="g204"
       transform="translate(188,571)"><path
         d="M 0,0 23,-37 41,-8 Z"
         style="fill:#47cb82;fill-opacity:1;fill-rule:nonzero;stroke:none"
         id="path206"
         inkscape:connector-curvature="0" /></g><g
       id="g208"
       transform="translate(188,571)"><path
         d="M 0,0 20,16 41,-8 Z"
         style="fill:#94d41e;fill-opacity:1;fill-rule:nonzero;stroke:none"
         id="path210"
         inkscape:connector-curvature="0" /></g><g
       id="g212"
       transform="translate(208,587)"><path
         d="M 0,0 21,-24 53,3 Z"
         style="fill:#47cb82;fill-opacity:1;fill-rule:nonzero;stroke:none"
         id="path214"
         inkscape:connector-curvature="0" /></g><g
       id="g216"
       transform="translate(181,535)"><path
         d="M 0,0 30,-1 -15.25,-58 Z"
         style="fill:#1e984f;fill-opacity:1;fill-rule:nonzero;stroke:none"
         id="path218"
         inkscape:connector-curvature="0" /></g><g
       id="g220"
       transform="translate(229,563)"><path
         d="M 0,0 32,27 58,-0.25 Z"
         style="fill:#ffde07;fill-opacity:1;fill-rule:nonzero;stroke:none"
         id="path222"
         inkscape:connector-curvature="0" /></g><g
       id="g224"
       transform="translate(287,562.75)"><path
         d="m 0,0 -58,0.25 28,-39 z"
         style="fill:#f9ca34;fill-opacity:1;fill-rule:nonzero;stroke:none"
         id="path226"
         inkscape:connector-curvature="0" /></g><g
       id="g228"
       transform="translate(229,563)"><path
         d="M 0,0 -18,-29 28,-39 Z"
         style="fill:#fedf00;fill-opacity:1;fill-rule:nonzero;stroke:none"
         id="path230"
         inkscape:connector-curvature="0" /></g><g
       id="g232"
       transform="translate(287,562.75)"><path
         d="m 0,0 34,-64.75 -44,-6 z"
         style="fill:#f29200;fill-opacity:1;fill-rule:nonzero;stroke:none"
         id="path234"
         inkscape:connector-curvature="0" /></g><g
       id="g236"
       transform="translate(277,492)"><path
         d="M 0,0 -20,32 10,70.75 Z"
         style="fill:#f9b234;fill-opacity:1;fill-rule:nonzero;stroke:none"
         id="path238"
         inkscape:connector-curvature="0" /></g><g
       id="g240"
       transform="translate(165.75,477)"><path
         d="m 0,0 2.25,-61 33,18 z"
         style="fill:#1e984f;fill-opacity:1;fill-rule:nonzero;stroke:none"
         id="path242"
         inkscape:connector-curvature="0" /></g><g
       id="g244"
       transform="translate(165.75,477)"><path
         d="m 0,0 35.25,-43 8,29 z"
         style="fill:#47cb82;fill-opacity:1;fill-rule:nonzero;stroke:none"
         id="path246"
         inkscape:connector-curvature="0" /></g><g
       id="g248"
       transform="translate(165.75,477)"><path
         d="m 0,0 45.25,57 -2,-71 z"
         style="fill:#3caa37;fill-opacity:1;fill-rule:nonzero;stroke:none"
         id="path250"
         inkscape:connector-curvature="0" /></g><g
       id="g252"
       transform="translate(211,534)"><path
         d="M 0,0 29,-63 -2,-71 Z"
         style="fill:#94d41e;fill-opacity:1;fill-rule:nonzero;stroke:none"
         id="path254"
         inkscape:connector-curvature="0" /></g><g
       id="g256"
       transform="translate(211,534)"><path
         d="M 0,0 46,-10 29,-63 Z"
         style="fill:#dddf00;fill-opacity:1;fill-rule:nonzero;stroke:none"
         id="path258"
         inkscape:connector-curvature="0" /></g><g
       id="g260"
       transform="translate(257,524)"><path
         d="m 0,0 -17,-53 37,21 z"
         style="fill:#fedf00;fill-opacity:1;fill-rule:nonzero;stroke:none"
         id="path262"
         inkscape:connector-curvature="0" /></g><g
       id="g264"
       transform="translate(201,434)"><path
         d="m 0,0 4,-76 -37,58 z"
         style="fill:#4080fe;fill-opacity:1;fill-rule:nonzero;stroke:none"
         id="path266"
         inkscape:connector-curvature="0" /></g><g
       id="g268"
       transform="translate(209,463)"><path
         d="M 0,0 -8,-29 40,-48 Z"
         style="fill:#36cde2;fill-opacity:1;fill-rule:nonzero;stroke:none"
         id="path270"
         inkscape:connector-curvature="0" /></g><g
       id="g272"
       transform="translate(201,434)"><path
         d="m 0,0 4,-76 44,57 z"
         style="fill:#3fa2ff;fill-opacity:1;fill-rule:nonzero;stroke:none"
         id="path274"
         inkscape:connector-curvature="0" /></g><g
       id="g276"
       transform="translate(209,463)"><path
         d="m 0,0 31,8 9,-56 z"
         style="fill:#48e1ed;fill-opacity:1;fill-rule:nonzero;stroke:none"
         id="path278"
         inkscape:connector-curvature="0" /></g><g
       id="g280"
       transform="translate(240,471)"><path
         d="M 0,0 37,21 52,-39 Z"
         style="fill:#dddf00;fill-opacity:1;fill-rule:nonzero;stroke:none"
         id="path282"
         inkscape:connector-curvature="0" /></g><g
       id="g284"
       transform="translate(292,432)"><path
         d="m 0,0 -43,-17 -9,56 z"
         style="fill:#36cde2;fill-opacity:1;fill-rule:nonzero;stroke:none"
         id="path286"
         inkscape:connector-curvature="0" /></g><g
       id="g288"
       transform="translate(277,492)"><path
         d="M 0,0 15,-60 44,6 Z"
         style="fill:#f9b234;fill-opacity:1;fill-rule:nonzero;stroke:none"
         id="path290"
         inkscape:connector-curvature="0" /></g><g
       id="g292"
       transform="translate(249,415)"><path
         d="m 0,0 -44,-57 57,-43 z"
         style="fill:#4080fe;fill-opacity:1;fill-rule:nonzero;stroke:none"
         id="path294"
         inkscape:connector-curvature="0" /></g><g
       id="g296"
       transform="translate(249,415)"><path
         d="m 0,0 13,-100 40,29 z"
         style="fill:#3fa2ff;fill-opacity:1;fill-rule:nonzero;stroke:none"
         id="path298"
         inkscape:connector-curvature="0" /></g><g
       id="g300"
       transform="translate(249,415)"><path
         d="M 0,0 53,-71 43,17 Z"
         style="fill:#48e1ed;fill-opacity:1;fill-rule:nonzero;stroke:none"
         id="path302"
         inkscape:connector-curvature="0" /></g><g
       id="g304"
       transform="translate(292,432)"><path
         d="M 0,0 55,49 29,66 Z"
         style="fill:#f29200;fill-opacity:1;fill-rule:nonzero;stroke:none"
         id="path306"
         inkscape:connector-curvature="0" /></g><g
       id="g308"
       transform="translate(347,481)"><path
         d="m 0,0 -55,-49 89,26 z"
         style="fill:#f9b234;fill-opacity:1;fill-rule:nonzero;stroke:none"
         id="path310"
         inkscape:connector-curvature="0" /></g><g
       id="g312"
       transform="translate(381,458)"><path
         d="m 0,0 -89,-26 69,-12 z"
         style="fill:#f9ca34;fill-opacity:1;fill-rule:nonzero;stroke:none"
         id="path314"
         inkscape:connector-curvature="0" /></g><g
       id="g316"
       transform="translate(292,432)"><path
         d="M 0,0 69,-12 55,-59 Z"
         style="fill:#fedf00;fill-opacity:1;fill-rule:nonzero;stroke:none"
         id="path318"
         inkscape:connector-curvature="0" /></g><g
       id="g320"
       transform="translate(347,373)"><path
         d="m 0,0 -55,59 10,-88 z"
         style="fill:#dddf00;fill-opacity:1;fill-rule:nonzero;stroke:none"
         id="path322"
         inkscape:connector-curvature="0" /></g><g
       id="g324"
       transform="translate(361,420)"><path
         d="M 0,0 20,38 86,0 Z"
         style="fill:#f9b234;fill-opacity:1;fill-rule:nonzero;stroke:none"
         id="path326"
         inkscape:connector-curvature="0" /></g><g
       id="g328"
       transform="translate(361,420)"><path
         d="M 0,0 78.875,-42.625 86,0 Z"
         style="fill:#f29200;fill-opacity:1;fill-rule:nonzero;stroke:none"
         id="path330"
         inkscape:connector-curvature="0" /></g><g
       id="g332"
       transform="translate(361,420)"><path
         d="M 0,0 78.875,-42.625 44,-66 Z"
         style="fill:#f9b234;fill-opacity:1;fill-rule:nonzero;stroke:none"
         id="path334"
         inkscape:connector-curvature="0" /></g><g
       id="g336"
       transform="translate(405,354)"><path
         d="m 0,0 -58,19 16,-43 z"
         style="fill:#dddf00;fill-opacity:1;fill-rule:nonzero;stroke:none"
         id="path338"
         inkscape:connector-curvature="0" /></g><g
       id="g340"
       transform="translate(347,373)"><path
         d="M 0,0 16,-43 -13,-61 Z"
         style="fill:#3fa2ff;fill-opacity:1;fill-rule:nonzero;stroke:none"
         id="path342"
         inkscape:connector-curvature="0" /></g><g
       id="g344"
       transform="translate(347,373)"><path
         d="m 0,0 -13,-61 -32,32 z"
         style="fill:#36cde2;fill-opacity:1;fill-rule:nonzero;stroke:none"
         id="path346"
         inkscape:connector-curvature="0" /></g><g
       id="g348"
       transform="translate(302,344)"><path
         d="m 0,0 -40,-29 72,-3 z"
         style="fill:#4080fe;fill-opacity:1;fill-rule:nonzero;stroke:none"
         id="path350"
         inkscape:connector-curvature="0" /></g><g
       id="g352"
       transform="translate(262,315)"><path
         d="M 0,0 72,-3 47,-28 Z"
         style="fill:#6b00f5;fill-opacity:1;fill-rule:nonzero;stroke:none"
         id="path354"
         inkscape:connector-curvature="0" /></g><g
       id="g356"
       transform="translate(363,330)"><path
         d="M 0,0 46.571,-30.571 42,24 Z"
         style="fill:#94d41e;fill-opacity:1;fill-rule:nonzero;stroke:none"
         id="path358"
         inkscape:connector-curvature="0" /></g><g
       id="g360"
       transform="translate(363,330)"><path
         d="M 0,0 46.571,-30.571 5,-33 Z"
         style="fill:#48e1ed;fill-opacity:1;fill-rule:nonzero;stroke:none"
         id="path362"
         inkscape:connector-curvature="0" /></g><g
       id="g364"
       transform="translate(363,330)"><path
         d="M 0,0 -29,-18 5,-33 Z"
         style="fill:#36cde2;fill-opacity:1;fill-rule:nonzero;stroke:none"
         id="path366"
         inkscape:connector-curvature="0" /></g><g
       id="g368"
       transform="translate(368,297)"><path
         d="m 0,0 -34,15 16,-31 z"
         style="fill:#3fa2ff;fill-opacity:1;fill-rule:nonzero;stroke:none"
         id="path370"
         inkscape:connector-curvature="0" /></g><g
       id="g372"
       transform="translate(334,312)"><path
         d="m 0,0 -25,-25 41,-6 z"
         style="fill:#7f3ee5;fill-opacity:1;fill-rule:nonzero;stroke:none"
         id="path374"
         inkscape:connector-curvature="0" /></g><g
       id="g376"
       transform="translate(409.5713,299.4287)"><path
         d="M 0,0 -4.571,54.571 30.304,77.946 Z"
         style="fill:#3caa37;fill-opacity:1;fill-rule:nonzero;stroke:none"
         id="path378"
         inkscape:connector-curvature="0" /></g><g
       id="g380"
       transform="translate(439.875,377.375)"><path
         d="m 0,0 67.125,-25.375 -60,68 z"
         style="fill:#fb4919;fill-opacity:1;fill-rule:nonzero;stroke:none"
         id="path382"
         inkscape:connector-curvature="0" /></g><g
       id="g384"
       transform="translate(350,281)"><path
         d="m 0,0 -43,-13 2,19 z"
         style="fill:#6b00f5;fill-opacity:1;fill-rule:nonzero;stroke:none"
         id="path386"
         inkscape:connector-curvature="0" /></g><g
       id="g388"
       transform="translate(350,281)"><path
         d="m 0,0 -81,-47 38,34 z"
         style="fill:#7f3ee5;fill-opacity:1;fill-rule:nonzero;stroke:none"
         id="path390"
         inkscape:connector-curvature="0" /></g><g
       id="g392"
       transform="translate(245,237)"><path
         d="M 0,0 24,-3 62,31 Z"
         style="fill:#4080fe;fill-opacity:1;fill-rule:nonzero;stroke:none"
         id="path394"
         inkscape:connector-curvature="0" /></g><g
       id="g396"
       transform="translate(269,234)"><path
         d="M 0,0 -24,3 -92,-13 Z"
         style="fill:#36cde2;fill-opacity:1;fill-rule:nonzero;stroke:none"
         id="path398"
         inkscape:connector-curvature="0" /></g><g
       id="g400"
       transform="translate(177,221)"><path
         d="M 0,0 H 98 L 92,13 Z"
         style="fill:#4080fe;fill-opacity:1;fill-rule:nonzero;stroke:none"
         id="path402"
         inkscape:connector-curvature="0" /></g><g
       id="g404"
       transform="translate(350,281)"><path
         d="m 0,0 18,16 41.571,2.429 z"
         style="fill:#3fa2ff;fill-opacity:1;fill-rule:nonzero;stroke:none"
         id="path406"
         inkscape:connector-curvature="0" /></g><g
       id="g408"
       transform="translate(310,233)"><path
         d="M 0,0 40,48 99.571,66.429 Z"
         style="fill:#4080fe;fill-opacity:1;fill-rule:nonzero;stroke:none"
         id="path410"
         inkscape:connector-curvature="0" /></g><g
       id="g412"
       transform="translate(409.5713,299.4287)"><path
         d="m 0,0 -99.571,-66.429 17,-3 z"
         style="fill:#6b00f5;fill-opacity:1;fill-rule:nonzero;stroke:none"
         id="path414"
         inkscape:connector-curvature="0" /></g><g
       id="g416"
       transform="translate(310,233)"><path
         d="M 0,0 64,-12 H 1 Z"
         style="fill:#4080fe;fill-opacity:1;fill-rule:nonzero;stroke:none"
         id="path418"
         inkscape:connector-curvature="0" /></g><g
       id="g420"
       transform="translate(310,233)"><path
         d="M 0,0 1,-12 H -43 Z"
         style="fill:#36cde2;fill-opacity:1;fill-rule:nonzero;stroke:none"
         id="path422"
         inkscape:connector-curvature="0" /></g><g
       id="g424"
       transform="translate(439.875,377.375)"><path
         d="m 0,0 57.125,-57.375 10,32 z"
         style="fill:#df0953;fill-opacity:1;fill-rule:nonzero;stroke:none"
         id="path426"
         inkscape:connector-curvature="0" /></g><g
       id="g428"
       transform="translate(497,320)"><path
         d="M 0,0 10,32 88.917,-7.333 Z"
         style="fill:#fb4919;fill-opacity:1;fill-rule:nonzero;stroke:none"
         id="path430"
         inkscape:connector-curvature="0" /></g><g
       id="g432"
       transform="translate(439.875,377.375)"><path
         d="m 0,0 57.125,-57.375 -8.75,-20 z"
         style="fill:#b501e0;fill-opacity:1;fill-rule:nonzero;stroke:none"
         id="path434"
         inkscape:connector-curvature="0" /></g><g
       id="g436"
       transform="translate(409.5713,299.4287)"><path
         d="M 0,0 30.304,77.946 38.429,-2.429 Z"
         style="fill:#4080fe;fill-opacity:1;fill-rule:nonzero;stroke:none"
         id="path438"
         inkscape:connector-curvature="0" /></g><g
       id="g440"
       transform="translate(439.875,377.375)"><path
         d="m 0,0 8.125,-80.375 40.25,3 z"
         style="fill:#7f3ee5;fill-opacity:1;fill-rule:nonzero;stroke:none"
         id="path442"
         inkscape:connector-curvature="0" /></g><g
       id="g444"
       transform="translate(488.25,300)"><path
         d="m 0,0 222.083,-76.667 -181.666,83 z"
         style="fill:#5725b7;fill-opacity:1;fill-rule:nonzero;stroke:none"
         id="path446"
         inkscape:connector-curvature="0" /></g><g
       id="g448"
       transform="translate(585.917,312.667)"><path
         d="m 0,0 124.416,-89.334 41.667,-0.333 z"
         style="fill:#df0953;fill-opacity:1;fill-rule:nonzero;stroke:none"
         id="path450"
         inkscape:connector-curvature="0" /></g><g
       id="g452"
       transform="translate(361,420)"><path
         d="M 0,0 -14,-47 44,-66 Z"
         style="fill:#ffd200;fill-opacity:1;fill-rule:nonzero;stroke:none"
         id="path454"
         inkscape:connector-curvature="0" /></g><g
       id="g456"
       transform="translate(488.25,300)"><path
         d="M 0,0 8.75,20 97.667,12.667 Z"
         style="fill:#7f3ee5;fill-opacity:1;fill-rule:nonzero;stroke:none"
         id="path458"
         inkscape:connector-curvature="0" /></g><g
       id="g460"
       transform="translate(710.333,223.333)"><path
         d="M 0,0 -124.416,89.334 -181.666,83 Z"
         style="fill:#b501e0;fill-opacity:1;fill-rule:nonzero;stroke:none"
         id="path462"
         inkscape:connector-curvature="0" /></g><g
       id="g464"
       transform="translate(488.25,300)"><path
         d="M 0,0 8.75,20 40.417,6.333 Z"
         style="fill:#7f3ee5;fill-opacity:1;fill-rule:nonzero;stroke:none"
         id="path466"
         inkscape:connector-curvature="0" /></g></g></svg>